<?xml version="1.0" encoding="UTF-8"?>
<svg id="Layer_1" data-name="Layer 1" xmlns="http://www.w3.org/2000/svg" viewBox="0 0 388.73 183.87">
  <defs>
    <style>
      .cls-1, .cls-2 {
        fill: #2261a4;
      }

      .cls-3 {
        fill: #6881b8;
      }

      .cls-4 {
        fill: #ccd1e6;
      }

      .cls-2, .cls-5 {
        fill-rule: evenodd;
      }

      .cls-6 {
        fill: #a1add2;
      }

      .cls-5, .cls-7 {
        fill: #8dc63f;
      }

      .cls-8 {
        fill: #231f20;
      }
    </style>
  </defs>
  <g>
    <path class="cls-8" d="m108.91,174.3h1.59l1.58,6.51,3.23-6.51h1.51l.13,9.34h-1.64l-.08-5.59-2.77,5.59h-1.34l-1.42-5.87-1.49,5.87h-1.68l2.37-9.34Z"/>
    <path class="cls-8" d="m123.7,181.61l1.49.77c-.33.44-.78.79-1.33,1.04-.55.26-1.16.38-1.84.38-1.05,0-1.88-.3-2.49-.89-.61-.59-.91-1.38-.91-2.36,0-1.12.38-2.07,1.14-2.85.76-.78,1.68-1.17,2.75-1.17.65,0,1.22.14,1.73.43.51.28.9.7,1.2,1.24s.44,1.13.44,1.76c0,.2-.02.43-.06.7h-5.51c.02.48.17.86.47,1.15.3.28.71.43,1.23.43.63,0,1.2-.21,1.69-.64Zm.43-2.18c-.13-.42-.34-.74-.63-.96s-.65-.33-1.07-.33-.79.11-1.12.34-.59.54-.76.95h3.59Z"/>
    <path class="cls-8" d="m127.95,174.06h1.69l-1.31,9.57h-1.69l1.31-9.57Z"/>
    <path class="cls-8" d="m131.64,183.63h-1.69l1.31-9.57h1.67l-.46,3.41c.37-.35.71-.59,1.02-.72s.67-.2,1.07-.2c.91,0,1.63.34,2.16,1.01.54.67.8,1.45.8,2.34,0,.68-.17,1.33-.51,1.95-.34.62-.8,1.1-1.38,1.44s-1.18.52-1.81.52c-.43,0-.82-.1-1.18-.29-.36-.19-.65-.48-.88-.85l-.13.96Zm2.51-5.58c-.41,0-.77.09-1.08.28-.31.19-.56.48-.77.88-.21.4-.31.81-.31,1.22,0,.54.16.98.47,1.32.31.33.73.5,1.24.5.6,0,1.1-.22,1.52-.67.42-.44.62-1.02.62-1.72,0-.54-.16-.98-.47-1.31-.31-.33-.72-.5-1.22-.5Z"/>
    <path class="cls-8" d="m142.6,176.55c.61,0,1.17.14,1.67.43.5.28.89.69,1.17,1.21.28.52.42,1.11.42,1.75,0,1.08-.38,1.99-1.15,2.75-.77.75-1.71,1.13-2.84,1.13-.98,0-1.76-.3-2.35-.89s-.88-1.37-.88-2.33c0-1.16.4-2.12,1.19-2.89.79-.77,1.71-1.15,2.77-1.15Zm-.12,1.61c-.69,0-1.22.25-1.59.75-.37.5-.55,1.04-.55,1.62,0,.52.15.93.45,1.25s.7.47,1.21.47c.71,0,1.26-.24,1.63-.72.37-.48.56-1.03.56-1.65,0-.51-.16-.92-.48-1.24-.32-.32-.73-.48-1.23-.48Z"/>
    <path class="cls-8" d="m147.83,176.73h1.68l-.48,3.53c-.05.39-.08.68-.08.88,0,.3.11.56.32.77.21.21.49.31.83.31.44,0,.77-.13,1.01-.4.23-.27.41-.81.52-1.62l.47-3.46h1.68l-.49,3.71c-.11.84-.31,1.49-.58,1.94s-.63.81-1.07,1.06c-.45.25-.97.37-1.57.37-.85,0-1.52-.24-2.02-.73-.5-.49-.75-1.12-.75-1.9,0-.47.06-1.08.17-1.83l.39-2.63Z"/>
    <path class="cls-8" d="m155.22,176.73h1.51l-.12.94c.45-.75,1-1.12,1.63-1.12.15,0,.31.04.48.12l-.62,1.54c-.13-.05-.22-.07-.28-.07-.33,0-.63.19-.89.57s-.46,1.16-.61,2.32l-.33,2.6h-1.7l.94-6.91Z"/>
    <path class="cls-8" d="m159.77,176.73h1.69l-.1.7c.65-.59,1.32-.88,2.02-.88.6,0,1.09.19,1.47.57.38.38.57.86.57,1.43,0,.27-.04.67-.11,1.21l-.53,3.87h-1.69l.52-3.78c.05-.39.08-.68.08-.88,0-.28-.08-.49-.24-.64s-.39-.23-.68-.23-.57.1-.85.29c-.28.2-.5.47-.66.82-.15.35-.29,1-.42,1.96l-.32,2.44h-1.69l.94-6.91Z"/>
    <path class="cls-8" d="m171.8,181.61l1.49.77c-.33.44-.78.79-1.33,1.04-.55.26-1.16.38-1.84.38-1.05,0-1.88-.3-2.49-.89-.61-.59-.91-1.38-.91-2.36,0-1.12.38-2.07,1.14-2.85.76-.78,1.68-1.17,2.75-1.17.65,0,1.22.14,1.73.43.51.28.9.7,1.2,1.24s.44,1.13.44,1.76c0,.2-.02.43-.06.7h-5.51c.02.48.17.86.47,1.15.3.28.71.43,1.23.43.63,0,1.2-.21,1.69-.64Zm.43-2.18c-.13-.42-.34-.74-.63-.96s-.65-.33-1.07-.33-.79.11-1.12.34-.59.54-.76.95h3.59Z"/>
    <path class="cls-8" d="m187.97,175.51l-1.28,1.18c-.27-.32-.61-.56-1.01-.73s-.83-.26-1.29-.26c-.65,0-1.28.17-1.87.5s-1.06.78-1.39,1.33c-.33.55-.5,1.14-.5,1.76,0,.85.29,1.55.88,2.11s1.33.84,2.25.84c.98,0,1.82-.28,2.54-.85l1.03,1.37c-1.06.75-2.29,1.12-3.69,1.12-.98,0-1.82-.19-2.5-.56-.69-.37-1.24-.92-1.66-1.64-.42-.72-.63-1.5-.63-2.35,0-.9.25-1.77.74-2.59.49-.83,1.16-1.48,2-1.96.84-.48,1.76-.71,2.75-.71,1.4,0,2.6.48,3.62,1.44Z"/>
    <path class="cls-8" d="m192.78,176.55c.61,0,1.17.14,1.67.43.5.28.89.69,1.17,1.21.28.52.42,1.11.42,1.75,0,1.08-.38,1.99-1.15,2.75-.77.75-1.71,1.13-2.84,1.13-.98,0-1.76-.3-2.35-.89s-.88-1.37-.88-2.33c0-1.16.4-2.12,1.19-2.89.79-.77,1.71-1.15,2.77-1.15Zm-.12,1.61c-.69,0-1.22.25-1.59.75-.37.5-.55,1.04-.55,1.62,0,.52.15.93.45,1.25s.7.47,1.21.47c.71,0,1.26-.24,1.63-.72.37-.48.56-1.03.56-1.65,0-.51-.16-.92-.48-1.24-.32-.32-.73-.48-1.23-.48Z"/>
    <path class="cls-8" d="m197.99,176.73h1.69l-.1.7c.65-.59,1.32-.88,2.02-.88.6,0,1.09.19,1.47.57.38.38.57.86.57,1.43,0,.27-.04.67-.11,1.21l-.53,3.87h-1.69l.52-3.78c.05-.39.08-.68.08-.88,0-.28-.08-.49-.24-.64-.16-.15-.38-.23-.68-.23s-.57.1-.85.29c-.28.2-.5.47-.66.82-.15.35-.29,1-.42,1.96l-.32,2.44h-1.69l.94-6.91Z"/>
    <path class="cls-8" d="m204.91,176.73h1.66l1.08,3.84,2.21-3.84h1.85l-4.01,6.91h-.82l-1.97-6.91Z"/>
    <path class="cls-8" d="m217.3,181.61l1.49.77c-.33.44-.78.79-1.33,1.04-.55.26-1.17.38-1.84.38-1.05,0-1.88-.3-2.49-.89s-.91-1.38-.91-2.36c0-1.12.38-2.07,1.14-2.85s1.68-1.17,2.75-1.17c.65,0,1.22.14,1.73.43.51.28.91.7,1.2,1.24.29.54.44,1.13.44,1.76,0,.2-.02.43-.06.7h-5.51c.02.48.17.86.47,1.15.3.28.71.43,1.23.43.63,0,1.2-.21,1.69-.64Zm.43-2.18c-.13-.42-.34-.74-.63-.96-.3-.22-.65-.33-1.07-.33s-.79.11-1.12.34c-.33.22-.59.54-.76.95h3.59Z"/>
    <path class="cls-8" d="m221.4,176.73h1.69l-.1.7c.65-.59,1.32-.88,2.02-.88.6,0,1.09.19,1.47.57.38.38.57.86.57,1.43,0,.27-.04.67-.11,1.21l-.53,3.87h-1.69l.52-3.78c.05-.39.08-.68.08-.88,0-.28-.08-.49-.24-.64s-.38-.23-.68-.23-.57.1-.85.29c-.28.2-.5.47-.66.82-.15.35-.29,1-.42,1.96l-.32,2.44h-1.69l.94-6.91Z"/>
    <path class="cls-8" d="m229.54,174.16h1.69l-.35,2.56h1.07l-.2,1.46h-1.07l-.74,5.45h-1.69l.74-5.45h-.83l.2-1.46h.83l.35-2.56Z"/>
    <path class="cls-8" d="m232.87,176.73h1.68l-.93,6.91h-1.69l.94-6.91Zm1.16-2.82c.29,0,.53.1.74.31s.31.45.31.74-.1.53-.31.74-.45.31-.74.31-.53-.1-.74-.31-.31-.45-.31-.74.1-.53.31-.74.45-.31.74-.31Z"/>
    <path class="cls-8" d="m239.32,176.55c.61,0,1.17.14,1.67.43.5.28.89.69,1.17,1.21.28.52.42,1.11.42,1.75,0,1.08-.38,1.99-1.15,2.75-.77.75-1.71,1.13-2.84,1.13-.98,0-1.76-.3-2.35-.89s-.88-1.37-.88-2.33c0-1.16.4-2.12,1.19-2.89.79-.77,1.71-1.15,2.77-1.15Zm-.12,1.61c-.69,0-1.22.25-1.59.75s-.55,1.04-.55,1.62c0,.52.15.93.45,1.25s.7.47,1.21.47c.71,0,1.26-.24,1.63-.72.37-.48.56-1.03.56-1.65,0-.51-.16-.92-.47-1.24s-.73-.48-1.23-.48Z"/>
    <path class="cls-8" d="m244.53,176.73h1.69l-.1.7c.65-.59,1.32-.88,2.02-.88.6,0,1.09.19,1.47.57.38.38.57.86.57,1.43,0,.27-.04.67-.11,1.21l-.53,3.87h-1.69l.52-3.78c.05-.39.08-.68.08-.88,0-.28-.08-.49-.24-.64-.16-.15-.38-.23-.68-.23s-.57.1-.85.29c-.28.2-.5.47-.66.82-.15.35-.29,1-.42,1.96l-.32,2.44h-1.69l.94-6.91Z"/>
    <path class="cls-8" d="m261.04,176.73h1.7l-.96,6.91h-1.68l.1-.74c-.37.34-.71.58-1.03.72-.32.14-.68.2-1.08.2-.92,0-1.64-.34-2.18-1.01-.54-.67-.81-1.46-.81-2.35,0-.68.17-1.33.52-1.95.35-.62.81-1.1,1.39-1.44s1.19-.52,1.83-.52c.43,0,.82.1,1.18.29.36.2.66.48.89.86l.13-.97Zm-2.55,5.57c.42,0,.78-.09,1.09-.28.31-.19.57-.48.78-.88.21-.4.32-.8.32-1.22,0-.55-.16-.99-.48-1.32-.32-.33-.73-.5-1.25-.5-.61,0-1.12.22-1.54.67-.42.44-.63,1.02-.63,1.72,0,.54.16.98.48,1.31s.73.5,1.23.5Z"/>
    <path class="cls-8" d="m264.55,176.73h1.69l-.1.7c.65-.59,1.32-.88,2.02-.88.6,0,1.09.19,1.47.57.38.38.57.86.57,1.43,0,.27-.04.67-.11,1.21l-.53,3.87h-1.69l.52-3.78c.05-.39.08-.68.08-.88,0-.28-.08-.49-.24-.64-.16-.15-.39-.23-.68-.23s-.57.1-.85.29c-.29.2-.5.47-.66.82-.15.35-.29,1-.42,1.96l-.33,2.44h-1.69l.94-6.91Z"/>
    <path class="cls-8" d="m277.79,174.06h1.7l-1.33,9.57h-1.68l.1-.74c-.37.34-.71.58-1.03.72-.32.14-.68.2-1.08.2-.92,0-1.64-.34-2.18-1.01-.54-.67-.81-1.46-.81-2.35,0-.68.17-1.33.52-1.95.35-.62.81-1.1,1.39-1.44.58-.34,1.19-.52,1.83-.52.43,0,.82.1,1.18.29s.66.48.89.86l.5-3.64Zm-2.91,8.24c.42,0,.78-.09,1.09-.28.31-.19.57-.48.78-.87.21-.4.32-.8.32-1.22,0-.55-.16-.99-.47-1.32-.32-.33-.73-.5-1.25-.5-.6,0-1.12.22-1.54.67-.42.44-.63,1.02-.63,1.72,0,.54.16.98.48,1.31.32.33.73.5,1.23.5Z"/>
    <path class="cls-8" d="m284.95,174.3h5.02l-.21,1.66h-3.26l-.27,1.93h3.28l-.21,1.64h-3.29l-.34,2.48h3.31l-.21,1.63h-5.08l1.28-9.34Z"/>
    <path class="cls-8" d="m290.48,176.73h1.87l1.2,1.96,1.44-1.96h1.97l-2.52,3.42,2.14,3.48h-1.87l-1.29-2.1-1.54,2.1h-1.97l2.62-3.56-2.05-3.34Z"/>
    <path class="cls-8" d="m298.98,174.06h1.68l-.46,3.37c.65-.58,1.32-.88,2.02-.88.6,0,1.09.19,1.47.57.38.38.57.86.57,1.43,0,.27-.04.67-.11,1.21l-.53,3.87h-1.69l.52-3.78c.05-.39.08-.68.08-.88,0-.28-.08-.49-.24-.64s-.38-.23-.68-.23-.57.1-.85.29c-.28.2-.5.47-.65.82-.15.35-.29,1-.42,1.97l-.33,2.44h-1.69l1.31-9.57Z"/>
    <path class="cls-8" d="m306.19,176.73h1.68l-.93,6.91h-1.69l.94-6.91Zm1.16-2.82c.29,0,.54.1.74.31s.31.45.31.74-.1.53-.31.74-.45.31-.74.31-.53-.1-.74-.31c-.21-.21-.31-.45-.31-.74s.1-.53.31-.74c.21-.21.45-.31.74-.31Z"/>
    <path class="cls-8" d="m310.26,183.63h-1.69l1.31-9.57h1.67l-.46,3.41c.37-.35.71-.59,1.02-.72.32-.13.67-.2,1.07-.2.91,0,1.63.34,2.16,1.01.54.67.8,1.45.8,2.34,0,.68-.17,1.33-.51,1.95-.34.62-.8,1.1-1.38,1.44s-1.18.52-1.81.52c-.43,0-.82-.1-1.18-.29s-.65-.48-.88-.85l-.13.96Zm2.51-5.58c-.41,0-.77.09-1.08.28s-.56.48-.77.88c-.21.4-.31.81-.31,1.22,0,.54.16.98.47,1.32.31.33.73.5,1.24.5.6,0,1.1-.22,1.52-.67.42-.44.62-1.02.62-1.72,0-.54-.16-.98-.47-1.31-.31-.33-.72-.5-1.22-.5Z"/>
    <path class="cls-8" d="m317.89,176.73h1.68l-.93,6.91h-1.69l.94-6.91Zm1.16-2.82c.29,0,.53.1.74.31.21.21.31.45.31.74s-.1.53-.31.74c-.21.21-.45.31-.74.31s-.53-.1-.74-.31c-.21-.21-.31-.45-.31-.74s.1-.53.31-.74c.21-.21.45-.31.74-.31Z"/>
    <path class="cls-8" d="m321.57,174.16h1.68l-.35,2.56h1.07l-.2,1.46h-1.07l-.74,5.45h-1.69l.74-5.45h-.83l.2-1.46h.83l.35-2.56Z"/>
    <path class="cls-8" d="m324.9,176.73h1.68l-.93,6.91h-1.69l.94-6.91Zm1.16-2.82c.29,0,.54.1.74.31s.31.45.31.74-.1.53-.31.74-.45.31-.74.31-.53-.1-.74-.31c-.21-.21-.31-.45-.31-.74s.1-.53.31-.74c.21-.21.45-.31.74-.31Z"/>
    <path class="cls-8" d="m331.35,176.55c.61,0,1.17.14,1.67.43.5.28.89.69,1.17,1.21.28.52.42,1.11.42,1.75,0,1.08-.38,1.99-1.15,2.75-.77.75-1.71,1.13-2.84,1.13-.98,0-1.77-.3-2.35-.89s-.88-1.37-.88-2.33c0-1.16.39-2.12,1.19-2.89.79-.77,1.71-1.15,2.77-1.15Zm-.12,1.61c-.69,0-1.22.25-1.59.75-.37.5-.55,1.04-.55,1.62,0,.52.15.93.45,1.25.3.32.71.47,1.21.47.71,0,1.26-.24,1.63-.72.37-.48.56-1.03.56-1.65,0-.51-.16-.92-.47-1.24-.32-.32-.73-.48-1.23-.48Z"/>
    <path class="cls-8" d="m336.57,176.73h1.69l-.1.7c.65-.59,1.32-.88,2.02-.88.6,0,1.09.19,1.47.57.38.38.57.86.57,1.43,0,.27-.04.67-.11,1.21l-.53,3.87h-1.69l.52-3.78c.05-.39.08-.68.08-.88,0-.28-.08-.49-.24-.64s-.38-.23-.68-.23-.57.1-.85.29c-.28.2-.5.47-.66.82-.15.35-.29,1-.42,1.96l-.32,2.44h-1.69l.94-6.91Z"/>
    <path class="cls-8" d="m356.45,175.51l-1.28,1.18c-.27-.32-.61-.56-1.01-.73-.4-.17-.83-.26-1.29-.26-.65,0-1.28.17-1.87.5s-1.06.78-1.39,1.33c-.33.55-.5,1.14-.5,1.76,0,.85.29,1.55.88,2.11s1.33.84,2.25.84c.98,0,1.82-.28,2.54-.85l1.03,1.37c-1.06.75-2.29,1.12-3.69,1.12-.98,0-1.82-.19-2.5-.56-.69-.37-1.24-.92-1.66-1.64-.42-.72-.63-1.5-.63-2.35,0-.9.25-1.77.74-2.59.49-.83,1.16-1.48,2-1.96.84-.48,1.76-.71,2.75-.71,1.4,0,2.6.48,3.62,1.44Z"/>
    <path class="cls-8" d="m362.37,181.61l1.49.77c-.33.44-.78.79-1.33,1.04-.55.26-1.16.38-1.84.38-1.05,0-1.88-.3-2.49-.89-.61-.59-.91-1.38-.91-2.36,0-1.12.38-2.07,1.14-2.85.76-.78,1.68-1.17,2.75-1.17.65,0,1.22.14,1.73.43.51.28.9.7,1.2,1.24.29.54.44,1.13.44,1.76,0,.2-.02.43-.06.7h-5.51c.02.48.17.86.47,1.15.3.28.71.43,1.24.43.63,0,1.2-.21,1.69-.64Zm.43-2.18c-.13-.42-.34-.74-.63-.96-.3-.22-.65-.33-1.07-.33s-.79.11-1.12.34c-.33.22-.59.54-.76.95h3.59Z"/>
    <path class="cls-8" d="m366.47,176.73h1.69l-.1.7c.65-.59,1.32-.88,2.02-.88.6,0,1.09.19,1.47.57.38.38.57.86.57,1.43,0,.27-.04.67-.11,1.21l-.53,3.87h-1.69l.52-3.78c.05-.39.08-.68.08-.88,0-.28-.08-.49-.24-.64s-.39-.23-.68-.23-.57.1-.85.29c-.29.2-.5.47-.66.82-.15.35-.29,1-.42,1.96l-.33,2.44h-1.69l.94-6.91Z"/>
    <path class="cls-8" d="m374.6,174.16h1.68l-.35,2.56h1.07l-.2,1.46h-1.07l-.74,5.45h-1.69l.74-5.45h-.83l.2-1.46h.83l.35-2.56Z"/>
    <path class="cls-8" d="m377.77,176.73h1.51l-.12.94c.45-.75,1-1.12,1.63-1.12.15,0,.31.04.48.12l-.62,1.54c-.13-.05-.22-.07-.28-.07-.33,0-.63.19-.89.57s-.46,1.16-.61,2.32l-.34,2.6h-1.7l.94-6.91Z"/>
    <path class="cls-8" d="m386.55,181.61l1.49.77c-.33.44-.78.79-1.33,1.04-.55.26-1.16.38-1.84.38-1.05,0-1.88-.3-2.49-.89s-.91-1.38-.91-2.36c0-1.12.38-2.07,1.14-2.85s1.68-1.17,2.75-1.17c.65,0,1.22.14,1.73.43.51.28.91.7,1.2,1.24s.44,1.13.44,1.76c0,.2-.02.43-.06.7h-5.51c.02.48.17.86.47,1.15.3.28.71.43,1.23.43.63,0,1.2-.21,1.69-.64Zm.43-2.18c-.13-.42-.34-.74-.63-.96s-.65-.33-1.07-.33-.79.11-1.12.34-.59.54-.76.95h3.59Z"/>
  </g>
  <path class="cls-2" d="m131.76,95.73c0,5.4-4.37,9.77-9.78,9.77s-9.77-4.38-9.77-9.77,4.38-9.78,9.77-9.78,9.78,4.38,9.78,9.78m-9.78-6.85c-3.78,0-6.83,3.07-6.83,6.85s3.06,6.85,6.83,6.85,6.84-3.07,6.84-6.85-3.06-6.85-6.84-6.85"/>
  <path class="cls-5" d="m127.52,95.73c0,3.06-2.48,5.54-5.55,5.54s-5.53-2.48-5.53-5.54,2.47-5.54,5.53-5.54,5.55,2.48,5.55,5.54"/>
  <path class="cls-2" d="m163.96,100.29c-1.23,1.34-2.99,2.18-4.95,2.18-3.72,0-6.74-3.02-6.74-6.74s3.02-6.75,6.74-6.75c2.01,0,3.83.89,5.05,2.3l2.24-2.06c-1.8-2-4.39-3.27-7.29-3.27-5.4,0-9.77,4.38-9.77,9.78s4.38,9.77,9.77,9.77c2.78,0,5.29-1.16,7.07-3.03l-2.12-2.18"/>
  <path class="cls-2" d="m180.38,100.29c-1.23,1.34-2.99,2.18-4.95,2.18-3.73,0-6.75-3.02-6.75-6.74s3.02-6.75,6.75-6.75c2.01,0,3.81.89,5.05,2.3l2.24-2.06c-1.8-2-4.4-3.27-7.29-3.27-5.4,0-9.78,4.38-9.78,9.78s4.38,9.77,9.78,9.77c2.78,0,5.28-1.16,7.06-3.03l-2.11-2.18"/>
  <path class="cls-2" d="m149.74,102.24h-13.2c.58-1.29.98-2.67,1.2-4.11h10.21c-.16-.78-.25-1.57-.25-2.39,0-.75.07-1.5.22-2.22h-10.14c-.19-1.32-.52-2.59-1-3.78h12.65c.9-1.45,2.13-2.68,3.57-3.6h-24.26c1.34.95,2.49,2.18,3.33,3.6.68,1.15,1.18,2.42,1.44,3.78.14.71.22,1.45.22,2.21,0,.82-.09,1.62-.25,2.4-.31,1.49-.91,2.87-1.72,4.11-.87,1.29-1.98,2.41-3.29,3.26h24.8c-1.38-.83-2.59-1.94-3.52-3.26"/>
  <g>
    <path class="cls-1" d="m136.94,125.48c-4.82-3.26-5.23-9.81-3.31-17.37h-7.73c-4.67,11.64-6.01,22.55.53,28.59,13.53,12.53,44.51-11.97,60.88-28.59h-9.88c-13.04,11.25-31.73,23.31-40.5,17.37"/>
    <path class="cls-1" d="m152.72,72.74c12.49-15.2,47.12-47.09,59.34-36.86,10.23,8.55-3.01,32.31-13.72,48.05h6.94c10.01-16.44,21.29-39.31,10.03-49.23-14.03-12.35-50.36,16.32-65.97,35.34-3.07,3.74-6.68,8.55-10.25,13.89h5.7c2.7-4.33,5.49-8.21,7.93-11.19"/>
  </g>
  <g>
    <path class="cls-7" d="m185.49,100.6l11.42-5.61c1.75-.87,1.95-1.45,1.95-1.99,0-.64-.48-1.1-1.56-1.1-1.28,0-3.13.89-4.81,2.22l-4.21-3.55c2.49-2.14,5.55-3.7,9.95-3.7,5.07,0,8.04,2.19,8.04,5.28,0,2.19-1.37,4.18-6.44,6.43l-4.05,1.79h8.42l-1.56,4.67h-18.62l1.5-4.44Z"/>
    <path class="cls-7" d="m206.73,98.38c0-6.12,5.33-11.58,12.72-11.58,5.9,0,9.18,3.29,9.18,7.07,0,6.12-5.33,11.58-12.72,11.58-5.9,0-9.18-3.29-9.18-7.07Zm14.42-3.98c0-1.68-1.05-2.42-2.36-2.42-2.87,0-4.56,3.34-4.56,5.87,0,1.68,1.05,2.42,2.36,2.42,2.87,0,4.56-3.34,4.56-5.87Z"/>
    <path class="cls-7" d="m228.93,100.6l11.42-5.61c1.75-.87,1.95-1.45,1.95-1.99,0-.64-.48-1.1-1.56-1.1-1.28,0-3.13.89-4.82,2.22l-4.21-3.55c2.49-2.14,5.55-3.7,9.95-3.7,5.07,0,8.04,2.19,8.04,5.28,0,2.19-1.37,4.18-6.44,6.43l-4.05,1.79h8.42l-1.56,4.67h-18.62l1.5-4.44Z"/>
    <path class="cls-7" d="m259.9,101.95h-10.11l-.86-4.34,14.92-10.56h8.29l-3.57,10.69h2.68l-1.44,4.21h-2.65l-1.05,3.09h-7.24l1.02-3.09Zm1.4-4.13l1.5-4.49-6.35,4.49h4.85Z"/>
  </g>
  <g>
    <path class="cls-7" d="m187.18,117.03h4.97l1.81,4.23,4.65-4.23h5.53l-4.04,12.05h-5.01l2-5.97-4.9,4.29h-.09l-2.02-4.29-2,5.97h-4.93l4.04-12.05Z"/>
    <path class="cls-7" d="m205.76,117.03h12.84l-1.12,3.3h-7.9l-.41,1.22h7.36l-.97,2.91h-7.36l-.45,1.31h8l-1.1,3.3h-12.95l4.04-12.05Z"/>
    <path class="cls-7" d="m220.24,117.03h5.03l-2.88,8.61h6.86l-1.16,3.44h-11.9l4.04-12.05Z"/>
    <path class="cls-7" d="m233.34,117.03h6.67c4.63,0,5.75,1.36,5.75,2.84s-1.23,2.68-3.53,3.17c1.42.29,2.45,1.14,2.45,2.38,0,2.03-2.02,3.67-7.19,3.67h-8.2l4.04-12.05Zm4.3,9c1.23,0,1.96-.43,1.96-1.03,0-.52-.54-.76-1.61-.76h-2.17l-.6,1.79h2.43Zm1.33-4.27c1.29,0,1.87-.46,1.87-.98s-.47-.71-1.55-.71h-2.09l-.56,1.69h2.32Z"/>
    <path class="cls-7" d="m246.18,123.86c0-3.74,3.81-7.07,8.86-7.07,4.43,0,7.49,2.38,7.49,5.46,0,3.73-3.81,7.07-8.86,7.07-4.43,0-7.49-2.38-7.49-5.46Zm11.3-1.26c0-1.27-.97-2.27-2.78-2.27-2.11,0-3.46,1.65-3.46,3.17,0,1.27.97,2.27,2.78,2.27,2.11,0,3.46-1.65,3.46-3.17Z"/>
    <path class="cls-7" d="m263.28,124.98c0-.62.11-1.29.32-1.94l2.02-6.01h5.12l-2.11,6.26c-.11.34-.17.67-.17.95,0,1,.73,1.51,2.07,1.51.62,0,1.2-.17,1.61-.5.45-.36.75-.83,1.08-1.76l2.17-6.47h5.12l-2.39,7.09c-.54,1.6-1.31,2.77-2.37,3.61-1.42,1.14-3.57,1.58-5.96,1.58-4.24,0-6.52-1.62-6.52-4.34Z"/>
    <path class="cls-7" d="m282.02,117.03h5.87c2.78,0,4.54.48,5.55,1.29.84.67,1.18,1.57,1.18,2.51,0,1.88-1.23,3.49-4.2,4.23l2.09,4.01h-5.42l-1.68-3.44h-1.25l-1.16,3.44h-5.03l4.04-12.05Zm4.93,5.73c1.68,0,2.56-.62,2.56-1.38,0-.24-.11-.46-.32-.64-.28-.22-.77-.34-1.48-.34h-1.79l-.8,2.36h1.83Z"/>
    <path class="cls-7" d="m297.36,117.03h4.71l3.42,5.75,1.94-5.75h4.99l-4.04,12.05h-4.48l-3.57-5.99-2.02,5.99h-4.99l4.04-12.05Z"/>
    <path class="cls-7" d="m314.05,117.03h12.84l-1.12,3.3h-7.9l-.41,1.22h7.36l-.97,2.91h-7.36l-.45,1.31h8l-1.1,3.3h-12.95l4.04-12.05Z"/>
  </g>
  <g>
    <path class="cls-4" d="m102.42,135.17c-1.52-.65-3.06-1.51-4.62-2.56-1.45-.98-2.91-2.12-4.38-3.41-2.32,2.39-6.11,3.3-10.9,2.88-1.24-.11-2.53-.3-3.89-.58-8.41-1.74-19.07-6.72-30.15-14.25-1.71-1.16-3.42-2.38-5.14-3.66-2.64-1.97-5.29-4.06-7.92-6.29-.33-.28-.65-.56-.98-.84-1.01-.87-2-1.75-2.98-2.63C9.37,83.79-2.53,61.7,4.68,53.2c7.47-8.8,32.64.25,56.77,20.2-.86-2.69-1.64-5.38-2.35-8.03C34.36,47.74,10.52,40.91,2.61,50.22c-7.87,9.28,2.63,31.56,23.87,53.02.82.83,1.66,1.66,2.51,2.49,2.14,2.07,4.37,4.13,6.7,6.16.67.59,1.35,1.18,2.04,1.76.48.41.97.82,1.46,1.22,16.22,13.47,32.95,22.62,45.95,25.92.76.19,1.51.37,2.24.52,6.09,1.27,11.25,1.13,14.96-.58.71-.33,1.37-.72,1.98-1.16.63-.46,1.2-.99,1.71-1.58.38-.45.72-.94,1.02-1.46-1.51-.22-3.05-.68-4.63-1.36Z"/>
    <path class="cls-4" d="m74.87,85.85c7.34,7.69,13.05,15.39,16.66,22.26.93,1.77,1.73,3.49,2.37,5.13,3.68,3.19,7.07,4.87,9.83,4.87.56,0,1.1-.07,1.62-.21-.24-.84-.47-1.7-.69-2.59-1.1-2.32-2.41-4.73-3.92-7.2-4.78-7.79-11.56-16.21-19.91-24.47-3.1-3.06-6.41-6.1-9.92-9.08-.42-.36-.85-.71-1.27-1.07,1.34,3.58,2.75,6.95,4.21,10.15.34.74.68,1.49,1.03,2.21Z"/>
  </g>
  <g>
    <path class="cls-6" d="m110.82,129.66c-.97-1.3-1.88-2.79-2.7-4.47-.77-1.57-1.48-3.3-2.11-5.19-3.2.9-6.93-.21-10.86-2.97-1.02-.71-2.06-1.54-3.1-2.47-2-1.78-4.04-3.95-6.07-6.46-4.47-5.52-8.91-12.67-12.91-20.96-.55-1.15-1.09-2.32-1.63-3.51-.33-.74-.67-1.48-.99-2.23-1.3-3.02-2.54-6.16-3.7-9.4-.14-.41-.29-.81-.43-1.21-.44-1.26-.86-2.52-1.26-3.77-9.12-28.39-8.38-53.48,2.12-57.23,10.86-3.89,28.15,16.53,39.07,45.87.6-2.76,1.27-5.46,1.98-8.12C95.6,19.91,78.37,2.06,66.86,6.18c-11.46,4.1-13.5,28.65-5.83,57.87.3,1.12.61,2.26.93,3.39.81,2.86,1.72,5.76,2.72,8.68.29.85.58,1.69.89,2.54.21.6.43,1.19.65,1.78.4,1.07.8,2.13,1.21,3.18,3.55,9.08,7.64,17.36,11.97,24.47,3.87,6.36,7.93,11.79,11.96,16.05.57.6,1.13,1.17,1.69,1.72.56.55,1.13,1.07,1.69,1.57,1.54,1.37,3.06,2.56,4.56,3.55,3.03,2,5.96,3.18,8.69,3.44.78.07,1.55.07,2.3-.02.78-.09,1.53-.25,2.27-.52.56-.2,1.1-.46,1.62-.75-1.19-.94-2.3-2.1-3.34-3.47Z"/>
    <path class="cls-6" d="m120.18,83.64c-1.5-7.11-3.61-14.61-6.33-22.24-.19-.52-.38-1.04-.57-1.56-.76,4.54-1.3,9.01-1.64,13.35.87,3.59,1.57,7.09,2.1,10.45h6.44Z"/>
    <path class="cls-6" d="m115.03,108.11c1.83,4.51,4.22,7.32,6.97,8.05.21-.85.44-1.71.7-2.59.14-1.74.22-3.56.23-5.46h-7.9Z"/>
  </g>
  <g>
    <path class="cls-3" d="m148.86,83.64h6.09c1-3.92,1.89-7.98,2.65-12.16.1-.55.2-1.09.29-1.63-2.93,3.55-5.63,7.15-8.09,10.74-.3,1.03-.62,2.05-.94,3.05Z"/>
    <path class="cls-3" d="m135.58,110.75c-1.15,5.95-.48,10.36,2.03,12.51,3.11-4.07,6.1-9.2,8.84-15.15h-8.9c-.65.94-1.31,1.82-1.97,2.65Z"/>
    <path class="cls-3" d="m144.53.16c-11.97-2.18-26.01,18.05-33.98,47.17-.31,1.13-.61,2.27-.9,3.43-.73,2.88-1.39,5.85-1.99,8.88-.17.88-.34,1.76-.5,2.65-.11.63-.22,1.25-.33,1.87-1.15,6.72-1.88,13.27-2.22,19.48-.49,9-.16,17.31.91,24.47.34,2.28.75,4.44,1.24,6.47.19.8.39,1.58.61,2.33.21.76.44,1.49.67,2.2.65,1.96,1.37,3.75,2.18,5.35,1.63,3.24,3.57,5.74,5.8,7.32.64.45,1.31.83,2,1.13.72.31,1.46.55,2.22.69.59.11,1.18.16,1.78.16-.56-1.4-.95-2.97-1.15-4.68-.19-1.61-.23-3.36-.11-5.22.12-1.75.37-3.6.77-5.55-3.23-.82-5.89-3.65-7.92-8-.32-.69-.63-1.43-.92-2.2-.18-.48-.36-.97-.53-1.48-1.99-5.99-3.06-13.91-3.1-22.99-.01-3.28.1-6.71.37-10.26.15-2.06.35-4.15.6-6.28.38-3.26.88-6.6,1.49-9.99.08-.42.16-.84.24-1.27.25-1.32.52-2.62.79-3.91,6.3-29.14,19.48-50.49,30.45-48.49,11.35,2.07,16.11,28.39,10.9,59.26,1.91-2.09,3.83-4.11,5.78-6.05,2.89-30.24-3.11-54.31-15.14-56.5Z"/>
  </g>
  <g>
    <path class="cls-8" d="m111.91,156.01h-1.98c.11-.94.48-1.68,1.1-2.23s1.38-.83,2.27-.83c.56,0,1.06.13,1.5.38.45.25.8.61,1.07,1.07.27.46.4.94.4,1.43s-.15.99-.44,1.46c-.29.47-.74.89-1.34,1.26,1.03.63,1.55,1.52,1.55,2.65,0,1.04-.38,1.94-1.15,2.68-.76.74-1.69,1.11-2.79,1.11-1,0-1.82-.35-2.48-1.04-.65-.69-.98-1.61-.98-2.75h2.03c.06.58.19,1.01.41,1.27.3.36.7.54,1.19.54.51,0,.92-.19,1.22-.58.3-.38.45-.84.45-1.37,0-.3-.08-.58-.25-.85-.16-.26-.38-.46-.65-.6-.27-.14-.68-.22-1.23-.25l.26-1.79c.66,0,1.16-.15,1.51-.45.35-.3.52-.68.52-1.13,0-.31-.1-.57-.29-.76-.2-.2-.44-.3-.74-.3s-.56.09-.78.28-.35.45-.41.8Z"/>
    <path class="cls-8" d="m121.98,152.95c.89,0,1.63.39,2.23,1.17.6.78.9,1.91.9,3.4s-.24,2.9-.72,4.11-1.07,2.07-1.77,2.59c-.7.52-1.45.78-2.25.78-.57,0-1.08-.16-1.53-.47-.45-.31-.81-.78-1.08-1.4-.27-.62-.41-1.43-.41-2.43,0-1.67.24-3.16.72-4.45.43-1.14,1-1.98,1.7-2.51.7-.53,1.44-.8,2.23-.8Zm-.2,2.03c-.32,0-.61.13-.88.4-.4.39-.75,1.11-1.05,2.13-.31,1.03-.46,2.09-.46,3.2,0,.92.11,1.53.32,1.86.21.33.51.49.88.49.34,0,.69-.17,1.05-.51.36-.34.69-1,.99-2,.3-.99.45-2.08.45-3.26,0-.83-.12-1.43-.36-1.78-.24-.36-.55-.53-.93-.53Z"/>
    <path class="cls-8" d="m134.4,153.24h2.15l-1.08,8.09c-.15,1.07-.33,1.83-.55,2.27s-.54.79-.95,1.03c-.42.24-.9.36-1.46.36-.69,0-1.35-.2-1.98-.61-.63-.41-1.13-.98-1.52-1.73l1.71-1.04c.3.47.6.81.9,1.02.3.21.56.32.79.32.24,0,.43-.09.57-.28s.24-.6.3-1.22l1.12-8.21Z"/>
    <path class="cls-8" d="m138.18,156.23h2.06l-.59,4.34c-.06.48-.09.84-.09,1.08,0,.37.13.69.39.94s.6.38,1.01.38c.54,0,.95-.16,1.24-.49.29-.33.5-.99.64-2l.58-4.25h2.06l-.61,4.56c-.14,1.03-.38,1.83-.71,2.39-.33.56-.77,1-1.32,1.3-.55.3-1.19.45-1.93.45-1.04,0-1.87-.3-2.49-.9-.62-.6-.92-1.38-.92-2.33,0-.58.07-1.33.2-2.25l.47-3.23Z"/>
    <path class="cls-8" d="m147.34,156.23h2.08l-.12.86c.8-.72,1.62-1.08,2.48-1.08.73,0,1.33.23,1.8.7.47.47.7,1.05.7,1.76,0,.33-.04.83-.13,1.49l-.65,4.75h-2.08l.63-4.64c.06-.48.09-.84.09-1.08,0-.34-.1-.61-.29-.79s-.47-.28-.83-.28-.7.12-1.05.36c-.35.24-.62.58-.81,1.01-.19.43-.36,1.23-.52,2.41l-.4,3h-2.08l1.16-8.48Z"/>
    <path class="cls-8" d="m161.72,162.23l1.83.95c-.41.54-.96.97-1.63,1.28-.68.31-1.43.47-2.26.47-1.29,0-2.31-.36-3.06-1.09-.75-.73-1.12-1.7-1.12-2.9,0-1.38.47-2.54,1.4-3.5.93-.95,2.06-1.43,3.38-1.43.8,0,1.5.17,2.12.52.62.35,1.11.85,1.47,1.52.36.67.54,1.39.54,2.17,0,.24-.03.53-.08.86h-6.77c.02.59.21,1.06.58,1.41s.87.52,1.52.52c.78,0,1.47-.26,2.07-.78Zm.53-2.68c-.16-.52-.42-.91-.78-1.18-.36-.27-.8-.4-1.32-.4s-.97.14-1.38.41c-.41.28-.72.67-.94,1.17h4.41Z"/>
    <path class="cls-8" d="m170.12,159.54h4.2l-.24,1.89h-4.21l.25-1.89Z"/>
    <path class="cls-8" d="m185.55,152.95h1.96l-1.09,7.69h1.13l-.25,1.86h-1.15l-.31,2.21h-1.96l.3-2.21h-4.84l.25-1.86,5.96-7.69Zm-.56,3.58l-3.13,4.11h2.57l.56-4.11Z"/>
    <path class="cls-8" d="m196.92,153.24h2.15l-1.08,8.09c-.15,1.07-.33,1.83-.55,2.27-.22.44-.54.79-.95,1.03-.42.24-.9.36-1.46.36-.69,0-1.35-.2-1.98-.61-.63-.41-1.13-.98-1.52-1.73l1.71-1.04c.3.47.6.81.9,1.02.3.21.56.32.79.32.24,0,.43-.09.57-.28s.24-.6.3-1.22l1.12-8.21Z"/>
    <path class="cls-8" d="m200.7,156.23h2.06l-.59,4.34c-.06.48-.09.84-.09,1.08,0,.37.13.69.39.94.26.25.6.38,1.01.38.54,0,.95-.16,1.24-.49.29-.33.5-.99.64-2l.58-4.25h2.06l-.61,4.56c-.14,1.03-.38,1.83-.71,2.39-.33.56-.77,1-1.32,1.3-.55.3-1.19.45-1.93.45-1.04,0-1.87-.3-2.49-.9-.61-.6-.92-1.38-.92-2.33,0-.58.07-1.33.2-2.25l.47-3.23Z"/>
    <path class="cls-8" d="m210.06,152.95h2.08l-1.61,11.76h-2.08l1.61-11.76Z"/>
    <path class="cls-8" d="m212.12,156.23h2.05l1.65,5.03,2.9-5.03h2.24l-6.67,11.59h-2.2l2.41-4.26-2.39-7.33Z"/>
    <path class="cls-8" d="m228,156.76h-2.09c.03-.78.2-1.46.51-2.04.31-.58.73-1.02,1.25-1.32.52-.3,1.11-.45,1.77-.45.96,0,1.75.31,2.37.92.62.62.94,1.38.94,2.3,0,.73-.25,1.52-.73,2.37-.49.85-1.69,2.25-3.59,4.21h3.86l-.26,1.96h-7.09l.19-1.5c1.97-2,3.25-3.34,3.84-4.01.79-.92,1.28-1.6,1.47-2.03.15-.34.23-.67.23-.98,0-.36-.12-.66-.36-.89-.24-.24-.53-.35-.87-.35-.36,0-.67.14-.91.41-.25.27-.42.74-.52,1.42Z"/>
    <path class="cls-8" d="m238.47,152.95c.89,0,1.63.39,2.23,1.17s.9,1.91.9,3.4-.24,2.9-.72,4.11c-.48,1.2-1.07,2.07-1.77,2.59s-1.45.78-2.25.78c-.57,0-1.08-.16-1.53-.47-.45-.31-.81-.78-1.08-1.4s-.41-1.43-.41-2.43c0-1.67.24-3.16.72-4.45.43-1.14,1-1.98,1.7-2.51s1.44-.8,2.23-.8Zm-.2,2.03c-.32,0-.61.13-.88.4-.39.39-.75,1.11-1.05,2.13-.31,1.03-.46,2.09-.46,3.2,0,.92.11,1.53.32,1.86.21.33.51.49.88.49.34,0,.69-.17,1.04-.51.36-.34.69-1,.99-2s.45-2.08.45-3.26c0-.83-.12-1.43-.36-1.78-.24-.36-.55-.53-.93-.53Z"/>
    <path class="cls-8" d="m245.09,156.76h-2.09c.03-.78.2-1.46.51-2.04.31-.58.73-1.02,1.25-1.32.52-.3,1.11-.45,1.77-.45.96,0,1.75.31,2.37.92.62.62.94,1.38.94,2.3,0,.73-.25,1.52-.73,2.37-.49.85-1.69,2.25-3.59,4.21h3.86l-.26,1.96h-7.09l.19-1.5c1.97-2,3.25-3.34,3.84-4.01.79-.92,1.28-1.6,1.47-2.03.15-.34.23-.67.23-.98,0-.36-.12-.66-.36-.89-.24-.24-.53-.35-.87-.35-.36,0-.67.14-.91.41-.25.27-.42.74-.52,1.42Z"/>
    <path class="cls-8" d="m256.61,152.95h1.96l-1.09,7.69h1.13l-.25,1.86h-1.15l-.31,2.21h-1.96l.3-2.21h-4.84l.25-1.86,5.96-7.69Zm-.56,3.58l-3.13,4.11h2.57l.56-4.11Z"/>
  </g>
</svg>